<?xml version="1.0" encoding="UTF-8"?>
<svg xmlns="http://www.w3.org/2000/svg" xmlns:xlink="http://www.w3.org/1999/xlink" width="512" height="512" viewBox="0 0 60 60" version="1.1"><!-- Generator: Sketch 51.3 (57544) - http://www.bohemiancoding.com/sketch --><title>025 - Parcel and Tape</title><desc>Created with Sketch.</desc><defs/><g id="Page-1" stroke="none" stroke-width="1" fill="none" fill-rule="evenodd"><g id="025---Parcel-and-Tape" fill="#000000" fill-rule="nonzero"><path d="M59.884,23.555 C59.8464757,23.4807837 59.7997767,23.4115752 59.745,23.349 C59.7232033,23.3213574 59.6994774,23.2952923 59.674,23.271 C59.596639,23.1977063 59.5077965,23.1375772 59.411,23.093 C59.402,23.093 59.395,23.082 59.386,23.078 L45.141,17.178 L44.997,17.118 C44.997,17.078 45.004,17.039 45.004,16.999 L45.004,8 C45.004,3.514 38.415,0 30.004,0 C21.593,0 15,3.514 15,8 L15,17 C15,17.04 15.008,17.078 15.009,17.118 L0.618,23.076 C0.608,23.076 0.6,23.088 0.591,23.092 C0.494479597,23.1366405 0.405697584,23.1963911 0.328,23.269 C0.30368763,23.2934597 0.280656855,23.3191607 0.259,23.346 C0.203558184,23.4090054 0.156500928,23.478919 0.119,23.554 C0.10206857,23.5848677 0.0867154681,23.6165751 0.073,23.649 C0.0277212219,23.7606472 0.00299053307,23.8795578 0,24 L0,47 C0.000368457943,47.1311507 0.0265317928,47.260948 0.077,47.382 C0.107464644,47.4401174 0.143643287,47.4950554 0.185,47.546 C0.213502236,47.6009431 0.246975296,47.6531611 0.285,47.702 C0.377845611,47.7947334 0.487904737,47.8684458 0.609,47.919 L29.6,59.919 C29.8446294,60.0201169 30.1193706,60.0201169 30.364,59.919 L59.356,47.919 C59.5389258,47.8581966 59.690537,47.7277822 59.778,47.556 C59.9227287,47.4073908 60.0025718,47.2074234 60,47 L60,24 C59.9977255,23.8804166 59.9740167,23.7622111 59.93,23.651 C59.9162857,23.6182491 59.900933,23.5862086 59.884,23.555 Z M2,25.5 L10,28.81 L10,37 C9.9999387,37.3003227 10.1348558,37.5847717 10.3674654,37.7747362 C10.600075,37.9647007 10.905745,38.0400645 11.2,37.98 L15.675,37.085 L20.297,41.707 C20.5833572,41.9900666 21.011553,42.073777 21.3834301,41.9193923 C21.7553071,41.7650077 21.9983164,41.4026466 22,41 L22,33.772 L29,36.672 L29,57.5 L2,46.332 L2,25.5 Z M17,17 L17,12.064 C17.022,12.084 17.049,12.102 17.07,12.122 C17.23,12.265 17.407,12.404 17.584,12.542 C17.677,12.614 17.761,12.689 17.859,12.76 C18.1256667,12.954 18.412,13.1426667 18.718,13.326 C18.735,13.336 18.748,13.347 18.765,13.357 C18.8,13.379 18.841,13.397 18.877,13.417 C19.4014103,13.7204237 19.9448754,13.9896511 20.504,14.223 C21.2651623,14.5484889 22.0468373,14.8237454 22.844,15.047 C23.029,15.1 23.215,15.147 23.404,15.198 C23.923,15.33 24.455,15.449 25.004,15.549 C25.191,15.583 25.379,15.616 25.569,15.649 C25.979,15.715 26.392,15.778 26.813,15.825 C26.964,15.842 27.12,15.849 27.272,15.864 C27.482,15.884 27.69,15.901 27.902,15.916 C28.594,15.967 29.292,16.002 30.002,16.002 L34.002,16.002 C37.109747,16.0056494 39.8443439,18.0544604 40.721,21.036 C40.7310107,21.0877911 40.7453956,21.13864 40.764,21.188 C40.9214347,21.779107 41.000776,22.3882872 41,23 L41.0000056,27.613 L36.316,26.051 C36.1108726,25.9826789 35.8891274,25.9826789 35.684,26.051 L31,27.613 L31,26.85 C30.9991612,25.7374574 30.5315336,24.6763164 29.711,23.925 C29.694,23.908 29.676,23.892 29.658,23.876 C29.0307867,23.3098742 28.2387934,22.9594347 27.398,22.876 C21.47,22.3 17,19.771 17,17 Z M42.139,12.761 C42.239,12.689 42.325,12.613 42.42,12.539 C42.595,12.402 42.77,12.265 42.928,12.124 C42.95,12.103 42.978,12.085 43,12.064 L43,17 C42.9657952,17.7839262 42.6505854,18.5293547 42.112,19.1 C41.2112269,17.2371056 39.7002244,15.7384537 37.83,14.853 C38.091,14.769 38.342,14.675 38.595,14.582 C38.695,14.545 38.802,14.515 38.901,14.477 C39.6968741,14.1748188 40.4661995,13.8068805 41.201,13.377 C41.212,13.371 41.224,13.366 41.235,13.359 C41.27,13.339 41.298,13.316 41.335,13.295 C41.614,13.122 41.886,12.945 42.139,12.761 Z M30,34.918 L23.283,32.138 L29.26,29.668 C29.3066119,29.7212303 29.358925,29.769184 29.416,29.811 C29.6768237,29.9979 30.0111597,30.0491649 30.316,29.949 L36,28.054 L41.684,29.954 C41.7602775,29.9756306 41.8387974,29.9883817 41.918,29.992 L30,34.918 Z M12,29.634 L20,32.944 L20,38.586 L16.707,35.293 C16.4711818,35.0578014 16.1337434,34.9554451 15.807,35.02 L12.007,35.78 L12,29.634 Z M28.387,25.956 L28.715,25.821 C28.901495,26.1318347 29.0000058,26.4875106 29,26.85 L29,27.611 L20.666,31.056 L18.366,30.103 L28.387,25.956 Z M26.113,24.733 L15.75,29.021 L13.45,28.069 L23.024,24.106 C24.0391188,24.3811811 25.0709263,24.5906157 26.113,24.733 Z M31,36.668 L58,25.5 L58,30.336 L46.618,35.046 C46.2776327,35.1755403 46.0346004,35.4798771 45.9835664,35.8404684 C45.9325325,36.2010597 46.0815668,36.5608851 46.3726192,36.7797893 C46.6636717,36.9986935 47.050718,37.0420611 47.383,36.893 L58,32.5 L58,35.336 L53.642,37.136 C53.3118866,37.2726541 53.0797533,37.5750411 53.0330425,37.9292547 C52.9863317,38.2834684 53.1321399,38.6356952 53.4155425,38.8532547 C53.6989451,39.0708143 54.0768866,39.1206541 54.407,38.984 L58,37.5 L58,40.336 L50.656,43.37 C50.1456889,43.5815251 49.903475,44.1666889 50.1150001,44.677 C50.3265251,45.1873111 50.9116889,45.429525 51.422,45.218 L58,42.5 L58,46.336 L31,57.5 L31,36.668 Z M42.771,29.634 C42.9184083,29.4555388 42.9993426,29.2314674 43,29 L43,23 C43.00042,22.400549 42.940789,21.8025635 42.822,21.215 C43.4457916,20.6840169 43.971155,20.0472846 44.374,19.334 L44.747,19.182 L56.386,24 L42.771,29.634 Z M30,2 C37.776,2 43,5.1 43,8 C43.0000611,8.16077228 42.9846568,8.32117767 42.954,8.479 C42.5186149,9.86978928 41.5230849,11.0160803 40.207,11.642 L40.201,11.642 C39.5561362,12.0159368 38.8827023,12.3382756 38.187,12.606 C37.655,12.814 37.087,12.992 36.511,13.154 C36.385,13.189 36.258,13.222 36.13,13.254 C35.6046667,13.3873333 35.0643333,13.5053333 34.509,13.608 C34.429,13.622 34.352,13.639 34.272,13.652 C33.693,13.752 33.096,13.819 32.49,13.875 C32.311,13.891 32.131,13.906 31.95,13.919 C31.31,13.964 30.662,13.997 30,13.997 C29.338,13.997 28.69,13.964 28.049,13.918 C27.869,13.906 27.69,13.891 27.512,13.875 C26.896,13.818 26.288,13.747 25.7,13.648 C25.634,13.637 25.572,13.622 25.507,13.611 C24.94,13.511 24.39,13.389 23.855,13.25 C23.733,13.219 23.612,13.187 23.493,13.15 C22.908,12.987 22.339,12.806 21.801,12.597 C21.452,12.466 21.114,12.321 20.786,12.165 C20.4373333,11.9983333 20.106,11.8213333 19.792,11.634 C17.991,10.569 17,9.276 17,8 C17,5.1 22.224,2 30,2 Z M15.493,19.082 C16.5525562,20.9256344 18.2147758,22.3480734 20.2,23.11 L10.834,26.987 L3.615,24 L15.493,19.082 Z" id="Shape"/><path d="M25.036,10.215 C26.6307333,10.7701216 28.3117935,11.0359621 30,11 C31.6878863,11.0360575 33.3686352,10.7702127 34.963,10.215 C36.646,9.547 37,8.642 37,8 C37,5.928 33.484,5 30,5 C26.516,5 23,5.928 23,8 C23,8.642 23.354,9.547 25.036,10.215 Z M30,7 C32.756,7 34.431,7.626 34.905,8 C34.695114,8.14964429 34.4660625,8.27039243 34.224,8.359 C31.4654017,9.16547637 28.5335983,9.16547637 25.775,8.359 C25.5350702,8.26980793 25.3080775,8.14908148 25.1,8 C25.569,7.626 27.244,7 30,7 Z" id="Shape"/></g></g></svg>
