<svg id="Capa_1" enable-background="new 0 0 499.859 499.859" height="512" viewBox="0 0 499.859 499.859" width="512" xmlns="http://www.w3.org/2000/svg"><g><path d="m425.57 81.77-72.983-72.984c-5.667-5.665-13.201-8.786-21.213-8.786h-235.871c-16.542 0-30 13.458-30 30v206.092c0 12.84 20 12.859 20 0v-206.092c0-5.514 4.486-10 10-10h232.862v56.421c0 16.542 13.458 30 30 30h55.992v363.438c0 5.514-4.486 10-10 10h-308.854c-5.514 0-10-4.486-10-10v-152.971c0-12.84-20-12.859-20 0v152.971c0 16.542 13.458 30 30 30h308.854c16.542 0 30-13.458 30-30v-366.876c-.001-8.014-3.121-15.548-8.787-21.213zm-77.205-5.349v-43.572l53.571 53.572h-43.571c-5.515 0-10-4.486-10-10z"/><path d="m67.783 281.694c2.988 4.565 9.355 5.75 13.86 2.76 4.535-3.01 5.794-9.337 2.77-13.859-3.031-4.533-9.331-5.795-13.87-2.771-4.535 3.021-5.776 9.343-2.76 13.87z"/><path d="m213.325 337.431c8.696.68 17.524-2.177 24.163-7.84l103.732-88.529c13.744-11.725 15.439-33.048 3.71-46.795-11.876-13.923-32.869-15.587-46.798-3.71l-78.431 66.941-15.626-18.476c-11.868-13.935-32.859-15.619-46.793-3.754-13.935 11.866-15.619 32.857-3.767 46.779l37.155 43.813c5.751 6.753 13.788 10.861 22.655 11.571zm-43.077-86.935c5.404-4.601 13.994-3.915 18.579 1.468l22.09 26.119c3.531 4.177 9.967 4.698 14.127 1.149l86.068-73.46c12.93-11.027 30.016 9.08 17.125 20.077l-103.731 88.528c-5.47 4.667-13.912 4.032-18.598-1.469l-37.154-43.811c-4.715-5.54-4.045-13.885 1.494-18.601z"/></g></svg>