<svg height="384pt" viewBox="0 0 384 384" width="384pt" xmlns="http://www.w3.org/2000/svg"><path d="m84.382812 212.949219c-5.847656 6.167969-5.847656 15.839843 0 22.015625 10.921876 11.519531 67.425782 68.992187 107.617188 68.992187s96.695312-57.472656 107.617188-68.992187c5.847656-6.167969 5.847656-15.839844 0-22.015625-10.921876-11.519531-67.425782-68.992188-107.617188-68.992188s-96.695312 57.472657-107.617188 68.992188zm107.617188-36.992188c16.785156 0 49.695312 25.335938 73.398438 48.007813-23.679688 22.664062-56.574219 47.992187-73.398438 47.992187-16.785156 0-49.695312-25.335937-73.398438-48.007812 23.679688-22.664063 56.574219-47.992188 73.398438-47.992188zm0 0"/><path d="m216 223.957031c0-13.230469-10.769531-24-24-24s-24 10.769531-24 24 10.769531 24 24 24 24-10.769531 24-24zm0 0"/><path d="m369.511719 109.828125-160.34375-104.871094c-10.433594-6.632812-23.910157-6.625-34.519531.113281l-160.167969 104.757813c-9.066407 5.9375-14.480469 15.945313-14.480469 26.785156v215.34375c0 17.648438 14.351562 32 32 32h320c17.648438 0 32-14.351562 32-32v-215.34375c0-10.839843-5.414062-20.847656-14.488281-26.785156zm-17.511719 242.128906h-320v-215.34375l159.832031-104.761719 160.167969 104.761719zm0 0"/></svg>