<?xml version="1.0"?>
<svg version="1.1" xmlns="http://www.w3.org/2000/svg" xmlns:xlink="http://www.w3.org/1999/xlink" viewBox="0 0 172 172">
<path d="M43,14.33333c-7.84216,0 -14.33333,6.49117 -14.33333,14.33333v35.83333c-7.91917,0 -14.33333,6.41417 -14.33333,14.33333v35.83333c0,7.91917 6.41417,14.33333 14.33333,14.33333v14.33333c0,7.84216 6.49117,14.33333 14.33333,14.33333h86c7.84216,0 14.33333,-6.49117 14.33333,-14.33333v-93.16667l-35.83333,-35.83333zM43,28.66667h57.33333v28.66667h28.66667v7.16667h-86zM28.66667,78.83333h10.75c5.934,0 10.75,4.816 10.75,10.75c0,5.934 -4.816,10.75 -10.75,10.75h-3.58333v14.33333h-7.16667zM93.16667,78.83333h21.5v7.16667h-14.33333v7.16667h11.46386v7.16667h-11.46386v14.33333h-7.16667zM57.33333,79.00131h11.67383c11.33767,0 16.99284,6.81885 16.99284,15.08919v5.52898c0,8.37067 -5.66716,15.0472 -17.09082,15.0472h-11.57585zM35.83333,86v7.16667h3.58333c1.978,0 3.58333,-1.60533 3.58333,-3.58333c0,-1.978 -1.60533,-3.58333 -3.58333,-3.58333zM64.5,86.16797v21.33203h4.40918c4.52933,0 9.92415,-1.3732 9.92415,-7.88053v-5.52898c0,-6.55033 -5.33984,-7.92252 -9.82617,-7.92252zM43,129h86v14.33333h-86z">
</path>
</svg>
