<?xml version="1.0" encoding="UTF-8" standalone="no"?>
<!-- Generator: Adobe Illustrator 16.0.0, SVG Export Plug-In . SVG Version: 6.00 Build 0)  -->

<svg
   xmlns:dc="http://purl.org/dc/elements/1.1/"
   xmlns:cc="http://creativecommons.org/ns#"
   xmlns:rdf="http://www.w3.org/1999/02/22-rdf-syntax-ns#"
   xmlns:svg="http://www.w3.org/2000/svg"
   xmlns="http://www.w3.org/2000/svg"
   xmlns:sodipodi="http://sodipodi.sourceforge.net/DTD/sodipodi-0.dtd"
   xmlns:inkscape="http://www.inkscape.org/namespaces/inkscape"
   version="1.1"
   x="0px"
   y="0px"
   width="200"
   height="200"
   viewBox="0 0 200 200"
   enable-background="new 0 0 479.999 479.999"
   xml:space="preserve"
   id="svg15"
   sodipodi:docname="logo_white.svg"
   inkscape:version="0.92.0 r15299"><metadata
     id="metadata21"><rdf:RDF><cc:Work
         rdf:about=""><dc:format>image/svg+xml</dc:format><dc:type
           rdf:resource="http://purl.org/dc/dcmitype/StillImage" /><dc:title /></cc:Work></rdf:RDF></metadata><defs
     id="defs19" /><sodipodi:namedview
     pagecolor="#ffffff"
     bordercolor="#666666"
     borderopacity="1"
     objecttolerance="10"
     gridtolerance="10"
     guidetolerance="10"
     inkscape:pageopacity="0"
     inkscape:pageshadow="2"
     inkscape:window-width="2560"
     inkscape:window-height="1377"
     id="namedview17"
     showgrid="false"
     inkscape:zoom="0.4916677"
     inkscape:cx="239.9995"
     inkscape:cy="239.9995"
     inkscape:window-x="2552"
     inkscape:window-y="-8"
     inkscape:window-maximized="1"
     inkscape:current-layer="g12" /><g
     id="Layer_2"
     transform="translate(-136.556,-143.442)"><g
       id="g12"><linearGradient
         id="SVGID_1_"
         gradientUnits="userSpaceOnUse"
         x1="315.8584"
         y1="166.7437"
         x2="153.8826"
         y2="323.1619"
         gradientTransform="matrix(0.9667113,0,0,0.9667113,4.5457722,11.432739)"><stop
           offset="0"
           style="stop-color:#00416D"
           id="stop5" /><stop
           offset="1"
           style="stop-color:#00A8E2"
           id="stop7" /></linearGradient><path
         d="m 236.55552,143.44297 c 55.22918,0 100.00048,44.7713 100.00048,99.99951 0,55.22919 -44.7713,99.99952 -100.00048,99.99952 -23.57229,0 -45.24113,-8.15614 -62.33548,-21.80127 -11.64404,4.86255 -28.15353,6.82208 -17.46461,-15.13387 -0.0454,-0.0522 -0.0348,-0.0657 0.0213,-0.0541 -8.81931,41.41777 60.57123,-15.7603 111.06449,-75.59779 -29.58523,25.78219 -109.99531,112.67696 -107.48089,63.91991 -1.3679,3.6184 -2.38681,6.80565 -3.09734,9.60525 -12.98487,-16.87008 -20.70696,-38.00336 -20.70696,-60.93762 0,-55.22821 44.7713,-99.99951 99.99952,-99.99951 z m 16.09767,46.12663 c 10.21137,3.0461 19.20372,8.91791 26.07414,16.7067 l 3.82238,-3.42602 c -11.24092,-12.72676 -27.67888,-20.75626 -45.99419,-20.75626 -33.8813,0 -61.34847,27.46717 -61.34847,61.34846 0,12.60399 3.80304,24.31956 10.32158,34.06401 1.90442,-0.57423 3.76147,-1.3534 4.93216,-1.88315 -0.73567,-1.05179 -1.4375,-2.12967 -2.10067,-3.23462 h 8.36399 c 2.7619,-1.56994 5.51122,-3.30712 8.20448,-5.11874 H 185.6282 c -3.04901,-6.505 -4.89156,-13.69056 -5.23184,-21.26861 h 22.56014 c 0.16627,7.37794 1.04695,14.4185 2.51828,20.9003 1.52257,-1.03245 3.02677,-2.08617 4.50488,-3.14568 -1.09142,-5.54602 -1.74975,-11.5174 -1.89089,-17.75462 h 24.83385 c 1.96242,-1.60958 3.91421,-3.23268 5.85827,-4.86256 l 0.33351,-0.25521 v -21.26958 h 23.25521 c 0.0773,0.32965 0.15467,0.66026 0.23008,0.99378 2.30754,-2.033 4.61121,-4.06986 6.90908,-6.11155 h -3.30035 c -3.09058,-10.52072 -7.8149,-19.20662 -13.55523,-24.92665 z m -18.65656,30.04442 h -23.25521 c -1.54673,6.50596 -2.47864,13.6925 -2.65072,21.26958 h 25.90593 z m 26.98865,-5.11777 c -4.57061,-14.98016 -12.57788,-25.41194 -21.86991,-27.04568 v 27.04568 z m -26.98865,0 v -27.04472 c -9.29203,1.63278 -17.30026,12.06456 -21.87087,27.04568 h 21.87087 z m -27.09498,0 c 3.09251,-10.52072 7.81586,-19.20566 13.55522,-24.92665 -13.54846,4.04278 -24.95275,13.05833 -32.09675,24.92665 z m -21.27442,5.11777 c -3.04997,6.50596 -4.88962,13.6925 -5.22894,21.26958 h 22.55918 c 0.16917,-7.51908 1.08078,-14.68725 2.60335,-21.26958 z m -12.12546,48.05135 c -16.99285,40.08275 -3.66867,40.53227 19.02005,25.03685 27.43526,-18.73583 70.24221,-61.35523 96.70013,-89.84034 -61.71678,55.43219 -120.07328,105.95445 -115.72018,64.80349 z m 54.82703,11.91472 c -6.50983,6.25848 -13.20624,12.41353 -20.11146,18.28824 8.47613,4.4227 18.1152,6.92262 28.33818,6.92262 33.88226,0 61.34846,-27.4662 61.34846,-61.34847 0,-12.15639 -3.53526,-23.48625 -9.63521,-33.01899 -19.73638,25.89143 -35.47444,45.63554 -59.93997,69.1566 z m 63.39596,-79.79332 -0.0996,-0.0406 -0.10634,-0.0435 -0.11503,-0.0474 -0.12181,-0.0493 -0.12857,-0.0522 0.1044,0.0425 -0.39345,-0.15951 -0.12761,-0.0522 z m -1.13298,-0.46112 -0.15081,-0.0609 z m -1.22483,-0.49689 -1.26542,-0.51429 0.0957,0.0396 0.10441,0.0416 0.11214,0.0464 0.11987,0.0483 0.0918,0.0377 0.19721,0.0802 0.22041,0.0889 -0.11214,-0.0464 0.14114,0.059 0.145,0.059 z m -1.35242,-0.55006 -0.0764,-0.0309 z m -0.23975,-0.0967 3.90648,1.58734 0.45049,0.18271 5.43002,13.36285 c 3.5894,-12.56048 12.56048,-19.41447 11.99398,-30.78686 -11.37335,-0.56649 -18.22637,8.40459 -30.78782,11.99399 l 8.95852,3.64063 0.002,9.7e-4 0.0106,0.004 0.028,0.0106 -0.0213,-0.009 z m 0.0367,0.0145 0.0609,0.0242 0.0783,0.0319 0.0648,0.0261 z m 0.13824,0.0561 0.0967,0.0396 z m 2.207,0.89711 0.34125,0.1392 0.0938,0.0377 z m 0.34125,0.13823 0.36735,0.14985 z"
         id="path10"
         style="clip-rule:evenodd;fill:#ffffff;fill-rule:evenodd;stroke-width:0.96671128"
         inkscape:connector-curvature="0" /></g></g></svg>